<mxfile host="app.diagrams.net" modified="2022-04-13T12:59:10.429Z" agent="5.0 (Macintosh; Intel Mac OS X 10_15_7) AppleWebKit/537.36 (KHTML, like Gecko) Chrome/100.0.4896.75 Safari/537.36" etag="ikAdo7heGXFNo5DMjs1h" version="17.4.0" type="github">
  <diagram id="ZeNOe9PrIsQSqItN8kcK" name="Page-1">
    <mxGraphModel dx="2528" dy="2042" grid="1" gridSize="10" guides="1" tooltips="1" connect="1" arrows="1" fold="1" page="1" pageScale="1" pageWidth="850" pageHeight="1100" math="0" shadow="0">
      <root>
        <mxCell id="0" />
        <mxCell id="1" parent="0" />
        <mxCell id="Tw8lnkLPAQWM7Mhae2tM-1" value="" style="rounded=0;whiteSpace=wrap;html=1;" vertex="1" parent="1">
          <mxGeometry x="-630" y="30" width="1010" height="400" as="geometry" />
        </mxCell>
        <mxCell id="Tw8lnkLPAQWM7Mhae2tM-3" value="Redis" style="rounded=0;whiteSpace=wrap;html=1;" vertex="1" parent="1">
          <mxGeometry x="600" y="-170" width="120" height="60" as="geometry" />
        </mxCell>
        <mxCell id="Tw8lnkLPAQWM7Mhae2tM-4" value="CMS" style="rounded=0;whiteSpace=wrap;html=1;" vertex="1" parent="1">
          <mxGeometry x="150" y="560" width="120" height="60" as="geometry" />
        </mxCell>
        <mxCell id="Tw8lnkLPAQWM7Mhae2tM-5" value="MongoDB&lt;br&gt;[CMS]" style="rounded=0;whiteSpace=wrap;html=1;" vertex="1" parent="1">
          <mxGeometry x="585" y="560" width="120" height="60" as="geometry" />
        </mxCell>
        <mxCell id="Tw8lnkLPAQWM7Mhae2tM-6" value="Cluster" style="rounded=0;whiteSpace=wrap;html=1;" vertex="1" parent="1">
          <mxGeometry x="505" y="-39.5" width="310" height="280" as="geometry" />
        </mxCell>
        <mxCell id="Tw8lnkLPAQWM7Mhae2tM-2" value="MongoDB" style="rounded=0;whiteSpace=wrap;html=1;" vertex="1" parent="1">
          <mxGeometry x="600" y="-10.5" width="120" height="60" as="geometry" />
        </mxCell>
        <mxCell id="Tw8lnkLPAQWM7Mhae2tM-7" value="MongoDB" style="rounded=0;whiteSpace=wrap;html=1;" vertex="1" parent="1">
          <mxGeometry x="525" y="139.5" width="120" height="60" as="geometry" />
        </mxCell>
        <mxCell id="Tw8lnkLPAQWM7Mhae2tM-8" value="MongoDB" style="rounded=0;whiteSpace=wrap;html=1;" vertex="1" parent="1">
          <mxGeometry x="685" y="139.5" width="120" height="60" as="geometry" />
        </mxCell>
        <mxCell id="Tw8lnkLPAQWM7Mhae2tM-10" value="Main Server" style="rounded=1;whiteSpace=wrap;html=1;" vertex="1" parent="1">
          <mxGeometry x="-420" width="120" height="60" as="geometry" />
        </mxCell>
        <mxCell id="Tw8lnkLPAQWM7Mhae2tM-46" style="edgeStyle=orthogonalEdgeStyle;rounded=0;orthogonalLoop=1;jettySize=auto;html=1;entryX=0;entryY=0.5;entryDx=0;entryDy=0;fontSize=11;" edge="1" parent="1" source="Tw8lnkLPAQWM7Mhae2tM-11" target="Tw8lnkLPAQWM7Mhae2tM-45">
          <mxGeometry relative="1" as="geometry" />
        </mxCell>
        <mxCell id="Tw8lnkLPAQWM7Mhae2tM-11" value="" style="sketch=0;outlineConnect=0;fontColor=#232F3E;gradientColor=none;fillColor=#232F3D;strokeColor=none;dashed=0;verticalLabelPosition=bottom;verticalAlign=top;align=center;html=1;fontSize=12;fontStyle=0;aspect=fixed;pointerEvents=1;shape=mxgraph.aws4.user;" vertex="1" parent="1">
          <mxGeometry x="-520" y="125.25" width="39" height="39" as="geometry" />
        </mxCell>
        <mxCell id="Tw8lnkLPAQWM7Mhae2tM-12" value="Rest API" style="rounded=1;whiteSpace=wrap;html=1;" vertex="1" parent="1">
          <mxGeometry x="-310" y="75.75" width="80" height="49.5" as="geometry" />
        </mxCell>
        <mxCell id="Tw8lnkLPAQWM7Mhae2tM-14" value="Free transaction 2 times&lt;br&gt;" style="sketch=0;outlineConnect=0;fontColor=#232F3E;gradientColor=none;fillColor=#232F3D;strokeColor=none;dashed=0;verticalLabelPosition=bottom;verticalAlign=top;align=center;html=1;fontSize=12;fontStyle=0;aspect=fixed;pointerEvents=1;shape=mxgraph.aws4.user;" vertex="1" parent="1">
          <mxGeometry x="-260" y="-400" width="39" height="39" as="geometry" />
        </mxCell>
        <mxCell id="Tw8lnkLPAQWM7Mhae2tM-15" value="user" style="rounded=1;whiteSpace=wrap;html=1;fontSize=11;" vertex="1" parent="1">
          <mxGeometry x="-320" y="-290" width="120" height="60" as="geometry" />
        </mxCell>
        <mxCell id="Tw8lnkLPAQWM7Mhae2tM-37" style="edgeStyle=orthogonalEdgeStyle;rounded=0;orthogonalLoop=1;jettySize=auto;html=1;exitX=0.5;exitY=1;exitDx=0;exitDy=0;fontSize=11;" edge="1" parent="1" source="Tw8lnkLPAQWM7Mhae2tM-16" target="Tw8lnkLPAQWM7Mhae2tM-34">
          <mxGeometry relative="1" as="geometry" />
        </mxCell>
        <mxCell id="Tw8lnkLPAQWM7Mhae2tM-16" value="backend&lt;br&gt;admin adress" style="rounded=1;whiteSpace=wrap;html=1;fontSize=11;" vertex="1" parent="1">
          <mxGeometry x="-100" y="-290" width="120" height="60" as="geometry" />
        </mxCell>
        <mxCell id="Tw8lnkLPAQWM7Mhae2tM-18" value="Game Contract" style="swimlane;fontStyle=0;childLayout=stackLayout;horizontal=1;startSize=30;horizontalStack=0;resizeParent=1;resizeParentMax=0;resizeLast=0;collapsible=1;marginBottom=0;fontSize=11;" vertex="1" parent="1">
          <mxGeometry x="-800" y="-430" width="340" height="390" as="geometry" />
        </mxCell>
        <mxCell id="Tw8lnkLPAQWM7Mhae2tM-19" value="craft material" style="text;strokeColor=none;fillColor=none;align=left;verticalAlign=middle;spacingLeft=4;spacingRight=4;overflow=hidden;points=[[0,0.5],[1,0.5]];portConstraint=eastwest;rotatable=0;fontSize=11;" vertex="1" parent="Tw8lnkLPAQWM7Mhae2tM-18">
          <mxGeometry y="30" width="340" height="30" as="geometry" />
        </mxCell>
        <mxCell id="Tw8lnkLPAQWM7Mhae2tM-25" value="craft building" style="text;strokeColor=none;fillColor=none;align=left;verticalAlign=middle;spacingLeft=4;spacingRight=4;overflow=hidden;points=[[0,0.5],[1,0.5]];portConstraint=eastwest;rotatable=0;fontSize=11;" vertex="1" parent="Tw8lnkLPAQWM7Mhae2tM-18">
          <mxGeometry y="60" width="340" height="30" as="geometry" />
        </mxCell>
        <mxCell id="Tw8lnkLPAQWM7Mhae2tM-20" value="upgrade building" style="text;strokeColor=none;fillColor=none;align=left;verticalAlign=middle;spacingLeft=4;spacingRight=4;overflow=hidden;points=[[0,0.5],[1,0.5]];portConstraint=eastwest;rotatable=0;fontSize=11;" vertex="1" parent="Tw8lnkLPAQWM7Mhae2tM-18">
          <mxGeometry y="90" width="340" height="30" as="geometry" />
        </mxCell>
        <mxCell id="Tw8lnkLPAQWM7Mhae2tM-22" value="refill building" style="text;strokeColor=none;fillColor=none;align=left;verticalAlign=middle;spacingLeft=4;spacingRight=4;overflow=hidden;points=[[0,0.5],[1,0.5]];portConstraint=eastwest;rotatable=0;fontSize=11;" vertex="1" parent="Tw8lnkLPAQWM7Mhae2tM-18">
          <mxGeometry y="120" width="340" height="30" as="geometry" />
        </mxCell>
        <mxCell id="Tw8lnkLPAQWM7Mhae2tM-23" value="repair building" style="text;strokeColor=none;fillColor=none;align=left;verticalAlign=middle;spacingLeft=4;spacingRight=4;overflow=hidden;points=[[0,0.5],[1,0.5]];portConstraint=eastwest;rotatable=0;fontSize=11;" vertex="1" parent="Tw8lnkLPAQWM7Mhae2tM-18">
          <mxGeometry y="150" width="340" height="30" as="geometry" />
        </mxCell>
        <mxCell id="Tw8lnkLPAQWM7Mhae2tM-31" value="awaken building  " style="text;strokeColor=none;fillColor=none;align=left;verticalAlign=middle;spacingLeft=4;spacingRight=4;overflow=hidden;points=[[0,0.5],[1,0.5]];portConstraint=eastwest;rotatable=0;fontSize=11;" vertex="1" parent="Tw8lnkLPAQWM7Mhae2tM-18">
          <mxGeometry y="180" width="340" height="30" as="geometry" />
        </mxCell>
        <mxCell id="Tw8lnkLPAQWM7Mhae2tM-30" value="reward board" style="text;strokeColor=none;fillColor=none;align=left;verticalAlign=middle;spacingLeft=4;spacingRight=4;overflow=hidden;points=[[0,0.5],[1,0.5]];portConstraint=eastwest;rotatable=0;fontSize=11;" vertex="1" parent="Tw8lnkLPAQWM7Mhae2tM-18">
          <mxGeometry y="210" width="340" height="30" as="geometry" />
        </mxCell>
        <mxCell id="Tw8lnkLPAQWM7Mhae2tM-26" value="quest" style="text;strokeColor=none;fillColor=none;align=left;verticalAlign=middle;spacingLeft=4;spacingRight=4;overflow=hidden;points=[[0,0.5],[1,0.5]];portConstraint=eastwest;rotatable=0;fontSize=11;" vertex="1" parent="Tw8lnkLPAQWM7Mhae2tM-18">
          <mxGeometry y="240" width="340" height="30" as="geometry" />
        </mxCell>
        <mxCell id="Tw8lnkLPAQWM7Mhae2tM-27" value="event" style="text;strokeColor=none;fillColor=none;align=left;verticalAlign=middle;spacingLeft=4;spacingRight=4;overflow=hidden;points=[[0,0.5],[1,0.5]];portConstraint=eastwest;rotatable=0;fontSize=11;" vertex="1" parent="Tw8lnkLPAQWM7Mhae2tM-18">
          <mxGeometry y="270" width="340" height="30" as="geometry" />
        </mxCell>
        <mxCell id="Tw8lnkLPAQWM7Mhae2tM-28" value="store" style="text;strokeColor=none;fillColor=none;align=left;verticalAlign=middle;spacingLeft=4;spacingRight=4;overflow=hidden;points=[[0,0.5],[1,0.5]];portConstraint=eastwest;rotatable=0;fontSize=11;" vertex="1" parent="Tw8lnkLPAQWM7Mhae2tM-18">
          <mxGeometry y="300" width="340" height="30" as="geometry" />
        </mxCell>
        <mxCell id="Tw8lnkLPAQWM7Mhae2tM-29" value="land" style="text;strokeColor=none;fillColor=none;align=left;verticalAlign=middle;spacingLeft=4;spacingRight=4;overflow=hidden;points=[[0,0.5],[1,0.5]];portConstraint=eastwest;rotatable=0;fontSize=11;" vertex="1" parent="Tw8lnkLPAQWM7Mhae2tM-18">
          <mxGeometry y="330" width="340" height="30" as="geometry" />
        </mxCell>
        <mxCell id="Tw8lnkLPAQWM7Mhae2tM-32" value="resource&amp;material tranfer" style="text;strokeColor=none;fillColor=none;align=left;verticalAlign=middle;spacingLeft=4;spacingRight=4;overflow=hidden;points=[[0,0.5],[1,0.5]];portConstraint=eastwest;rotatable=0;fontSize=11;" vertex="1" parent="Tw8lnkLPAQWM7Mhae2tM-18">
          <mxGeometry y="360" width="340" height="30" as="geometry" />
        </mxCell>
        <mxCell id="Tw8lnkLPAQWM7Mhae2tM-36" style="edgeStyle=orthogonalEdgeStyle;rounded=0;orthogonalLoop=1;jettySize=auto;html=1;exitX=0;exitY=0.5;exitDx=0;exitDy=0;fontSize=11;" edge="1" parent="1" source="Tw8lnkLPAQWM7Mhae2tM-34" target="Tw8lnkLPAQWM7Mhae2tM-35">
          <mxGeometry relative="1" as="geometry" />
        </mxCell>
        <mxCell id="Tw8lnkLPAQWM7Mhae2tM-42" value="not free" style="edgeLabel;html=1;align=center;verticalAlign=middle;resizable=0;points=[];fontSize=11;" vertex="1" connectable="0" parent="Tw8lnkLPAQWM7Mhae2tM-36">
          <mxGeometry x="0.02" relative="1" as="geometry">
            <mxPoint as="offset" />
          </mxGeometry>
        </mxCell>
        <mxCell id="Tw8lnkLPAQWM7Mhae2tM-39" style="edgeStyle=orthogonalEdgeStyle;rounded=0;orthogonalLoop=1;jettySize=auto;html=1;exitX=0.5;exitY=1;exitDx=0;exitDy=0;entryX=0.5;entryY=0;entryDx=0;entryDy=0;fontSize=11;" edge="1" parent="1" source="Tw8lnkLPAQWM7Mhae2tM-34" target="Tw8lnkLPAQWM7Mhae2tM-38">
          <mxGeometry relative="1" as="geometry" />
        </mxCell>
        <mxCell id="Tw8lnkLPAQWM7Mhae2tM-41" value="free" style="edgeLabel;html=1;align=center;verticalAlign=middle;resizable=0;points=[];fontSize=11;" vertex="1" connectable="0" parent="Tw8lnkLPAQWM7Mhae2tM-39">
          <mxGeometry x="-0.0421" y="-2" relative="1" as="geometry">
            <mxPoint as="offset" />
          </mxGeometry>
        </mxCell>
        <mxCell id="Tw8lnkLPAQWM7Mhae2tM-83" style="edgeStyle=orthogonalEdgeStyle;rounded=0;orthogonalLoop=1;jettySize=auto;html=1;exitX=1;exitY=0.5;exitDx=0;exitDy=0;fontSize=11;" edge="1" parent="1" source="Tw8lnkLPAQWM7Mhae2tM-34" target="Tw8lnkLPAQWM7Mhae2tM-82">
          <mxGeometry relative="1" as="geometry" />
        </mxCell>
        <mxCell id="Tw8lnkLPAQWM7Mhae2tM-34" value="sign transaction" style="rounded=1;whiteSpace=wrap;html=1;fontSize=11;" vertex="1" parent="1">
          <mxGeometry x="-100" y="-210" width="120" height="60" as="geometry" />
        </mxCell>
        <mxCell id="Tw8lnkLPAQWM7Mhae2tM-35" value="send transaction" style="rounded=1;whiteSpace=wrap;html=1;fontSize=11;" vertex="1" parent="1">
          <mxGeometry x="-320" y="-210" width="120" height="60" as="geometry" />
        </mxCell>
        <mxCell id="Tw8lnkLPAQWM7Mhae2tM-38" value="send transaction" style="rounded=1;whiteSpace=wrap;html=1;fontSize=11;" vertex="1" parent="1">
          <mxGeometry x="-100" y="-100" width="120" height="60" as="geometry" />
        </mxCell>
        <mxCell id="Tw8lnkLPAQWM7Mhae2tM-40" value="function role&lt;br&gt;(admin)" style="rounded=1;whiteSpace=wrap;html=1;fontSize=11;" vertex="1" parent="1">
          <mxGeometry x="-100" y="-400" width="120" height="60" as="geometry" />
        </mxCell>
        <mxCell id="Tw8lnkLPAQWM7Mhae2tM-43" value="Event Log Stream" style="rounded=1;whiteSpace=wrap;html=1;" vertex="1" parent="1">
          <mxGeometry x="-140" y="109.5" width="80" height="49.5" as="geometry" />
        </mxCell>
        <mxCell id="Tw8lnkLPAQWM7Mhae2tM-44" value="Rest API" style="rounded=1;whiteSpace=wrap;html=1;" vertex="1" parent="1">
          <mxGeometry x="-310" y="150" width="80" height="49.5" as="geometry" />
        </mxCell>
        <mxCell id="Tw8lnkLPAQWM7Mhae2tM-47" style="edgeStyle=orthogonalEdgeStyle;rounded=0;orthogonalLoop=1;jettySize=auto;html=1;exitX=1;exitY=0.5;exitDx=0;exitDy=0;fontSize=11;" edge="1" parent="1" source="Tw8lnkLPAQWM7Mhae2tM-45" target="Tw8lnkLPAQWM7Mhae2tM-12">
          <mxGeometry relative="1" as="geometry" />
        </mxCell>
        <mxCell id="Tw8lnkLPAQWM7Mhae2tM-48" style="edgeStyle=orthogonalEdgeStyle;rounded=0;orthogonalLoop=1;jettySize=auto;html=1;exitX=1;exitY=0.5;exitDx=0;exitDy=0;fontSize=11;" edge="1" parent="1" source="Tw8lnkLPAQWM7Mhae2tM-45" target="Tw8lnkLPAQWM7Mhae2tM-44">
          <mxGeometry relative="1" as="geometry" />
        </mxCell>
        <mxCell id="Tw8lnkLPAQWM7Mhae2tM-45" value="Load Balance" style="rounded=1;whiteSpace=wrap;html=1;" vertex="1" parent="1">
          <mxGeometry x="-425" y="120" width="80" height="49.5" as="geometry" />
        </mxCell>
        <mxCell id="Tw8lnkLPAQWM7Mhae2tM-49" value="&lt;br&gt;QueueFetcher" style="rounded=1;whiteSpace=wrap;html=1;" vertex="1" parent="1">
          <mxGeometry x="-5" y="100.5" width="90" height="49.5" as="geometry" />
        </mxCell>
        <mxCell id="Tw8lnkLPAQWM7Mhae2tM-50" value="TXTODBSettlement" style="rounded=1;whiteSpace=wrap;html=1;" vertex="1" parent="1">
          <mxGeometry x="-30" y="191" width="140" height="49.5" as="geometry" />
        </mxCell>
        <mxCell id="Tw8lnkLPAQWM7Mhae2tM-51" value="" style="rounded=0;whiteSpace=wrap;html=1;fontSize=11;" vertex="1" parent="1">
          <mxGeometry x="400" y="-180" width="120" height="60" as="geometry" />
        </mxCell>
        <mxCell id="Tw8lnkLPAQWM7Mhae2tM-59" value="ContentTransaction" style="swimlane;fontStyle=0;childLayout=stackLayout;horizontal=1;startSize=26;fillColor=#cce5ff;horizontalStack=0;resizeParent=1;resizeParentMax=0;resizeLast=0;collapsible=1;marginBottom=0;strokeColor=#36393d;" vertex="1" parent="1">
          <mxGeometry x="120" y="-328" width="230" height="208" as="geometry" />
        </mxCell>
        <mxCell id="Tw8lnkLPAQWM7Mhae2tM-60" value="id: ObjectID" style="text;strokeColor=none;spacingLeft=4;spacingRight=4;overflow=hidden;rotatable=0;points=[[0,0.5],[1,0.5]];portConstraint=eastwest;fillColor=#ffffff;" vertex="1" parent="Tw8lnkLPAQWM7Mhae2tM-59">
          <mxGeometry y="26" width="230" height="26" as="geometry" />
        </mxCell>
        <mxCell id="Tw8lnkLPAQWM7Mhae2tM-61" value="ContentMeta" style="text;align=left;verticalAlign=top;spacingLeft=4;spacingRight=4;overflow=hidden;rotatable=0;points=[[0,0.5],[1,0.5]];portConstraint=eastwest;fillColor=#ffffff;" vertex="1" parent="Tw8lnkLPAQWM7Mhae2tM-59">
          <mxGeometry y="52" width="230" height="26" as="geometry" />
        </mxCell>
        <mxCell id="Tw8lnkLPAQWM7Mhae2tM-66" value="userAddress: string" style="text;align=left;verticalAlign=top;spacingLeft=4;spacingRight=4;overflow=hidden;rotatable=0;points=[[0,0.5],[1,0.5]];portConstraint=eastwest;fillColor=#ffffff;" vertex="1" parent="Tw8lnkLPAQWM7Mhae2tM-59">
          <mxGeometry y="78" width="230" height="26" as="geometry" />
        </mxCell>
        <mxCell id="Tw8lnkLPAQWM7Mhae2tM-87" value="settled: bool" style="text;align=left;verticalAlign=top;spacingLeft=4;spacingRight=4;overflow=hidden;rotatable=0;points=[[0,0.5],[1,0.5]];portConstraint=eastwest;fillColor=#ffffff;" vertex="1" parent="Tw8lnkLPAQWM7Mhae2tM-59">
          <mxGeometry y="104" width="230" height="26" as="geometry" />
        </mxCell>
        <mxCell id="Tw8lnkLPAQWM7Mhae2tM-88" value="expiredOn: int64" style="text;align=left;verticalAlign=top;spacingLeft=4;spacingRight=4;overflow=hidden;rotatable=0;points=[[0,0.5],[1,0.5]];portConstraint=eastwest;fillColor=#ffffff;" vertex="1" parent="Tw8lnkLPAQWM7Mhae2tM-59">
          <mxGeometry y="130" width="230" height="26" as="geometry" />
        </mxCell>
        <mxCell id="Tw8lnkLPAQWM7Mhae2tM-89" value="failed: bool" style="text;align=left;verticalAlign=top;spacingLeft=4;spacingRight=4;overflow=hidden;rotatable=0;points=[[0,0.5],[1,0.5]];portConstraint=eastwest;fillColor=#ffffff;" vertex="1" parent="Tw8lnkLPAQWM7Mhae2tM-59">
          <mxGeometry y="156" width="230" height="26" as="geometry" />
        </mxCell>
        <mxCell id="Tw8lnkLPAQWM7Mhae2tM-90" value="error: string" style="text;align=left;verticalAlign=top;spacingLeft=4;spacingRight=4;overflow=hidden;rotatable=0;points=[[0,0.5],[1,0.5]];portConstraint=eastwest;fillColor=#ffffff;" vertex="1" parent="Tw8lnkLPAQWM7Mhae2tM-59">
          <mxGeometry y="182" width="230" height="26" as="geometry" />
        </mxCell>
        <mxCell id="Tw8lnkLPAQWM7Mhae2tM-70" value="ContentMeta" style="swimlane;fontStyle=0;childLayout=stackLayout;horizontal=1;startSize=26;fillColor=#cce5ff;horizontalStack=0;resizeParent=1;resizeParentMax=0;resizeLast=0;collapsible=1;marginBottom=0;strokeColor=#36393d;" vertex="1" parent="1">
          <mxGeometry x="-700" y="-650" width="230" height="78" as="geometry" />
        </mxCell>
        <mxCell id="Tw8lnkLPAQWM7Mhae2tM-71" value="ContentType: ContentType" style="text;strokeColor=none;spacingLeft=4;spacingRight=4;overflow=hidden;rotatable=0;points=[[0,0.5],[1,0.5]];portConstraint=eastwest;fillColor=#ffffff;" vertex="1" parent="Tw8lnkLPAQWM7Mhae2tM-70">
          <mxGeometry y="26" width="230" height="26" as="geometry" />
        </mxCell>
        <mxCell id="Tw8lnkLPAQWM7Mhae2tM-72" value="Meta: interface" style="text;align=left;verticalAlign=top;spacingLeft=4;spacingRight=4;overflow=hidden;rotatable=0;points=[[0,0.5],[1,0.5]];portConstraint=eastwest;fillColor=#ffffff;" vertex="1" parent="Tw8lnkLPAQWM7Mhae2tM-70">
          <mxGeometry y="52" width="230" height="26" as="geometry" />
        </mxCell>
        <mxCell id="Tw8lnkLPAQWM7Mhae2tM-84" style="edgeStyle=orthogonalEdgeStyle;rounded=0;orthogonalLoop=1;jettySize=auto;html=1;exitX=1;exitY=0.5;exitDx=0;exitDy=0;entryX=0;entryY=0.25;entryDx=0;entryDy=0;fontSize=11;" edge="1" parent="1" source="Tw8lnkLPAQWM7Mhae2tM-82" target="Tw8lnkLPAQWM7Mhae2tM-6">
          <mxGeometry relative="1" as="geometry" />
        </mxCell>
        <mxCell id="Tw8lnkLPAQWM7Mhae2tM-85" style="edgeStyle=orthogonalEdgeStyle;rounded=0;orthogonalLoop=1;jettySize=auto;html=1;exitX=0.5;exitY=1;exitDx=0;exitDy=0;fontSize=11;" edge="1" parent="1" source="Tw8lnkLPAQWM7Mhae2tM-82" target="Tw8lnkLPAQWM7Mhae2tM-49">
          <mxGeometry relative="1" as="geometry" />
        </mxCell>
        <mxCell id="Tw8lnkLPAQWM7Mhae2tM-82" value="ContentGateway" style="rounded=0;whiteSpace=wrap;html=1;fontSize=11;" vertex="1" parent="1">
          <mxGeometry x="-20" y="0.5" width="120" height="60" as="geometry" />
        </mxCell>
        <mxCell id="Tw8lnkLPAQWM7Mhae2tM-91" value="" style="rounded=0;whiteSpace=wrap;html=1;fontSize=11;" vertex="1" parent="1">
          <mxGeometry x="-770" y="114.75" width="120" height="60" as="geometry" />
        </mxCell>
      </root>
    </mxGraphModel>
  </diagram>
</mxfile>
